<svg xmlns="http://www.w3.org/2000/svg" width="32.17" height="20.61" viewBox="0 0 32.17 20.61">
  <g id="グループ_59" data-name="グループ 59" transform="translate(-727.954 -4618.394)">
    <path id="パス_104" data-name="パス 104" d="M759.626,4639H728.451a.5.5,0,0,1-.5-.5v-19.616a.5.5,0,0,1,.5-.5h31.175a.5.5,0,0,1,.5.5v19.616A.5.5,0,0,1,759.626,4639Zm-30.677-.994h30.18v-18.621h-30.18Z"/>
    <path id="パス_105" data-name="パス 105" d="M744.039,4631.7a.494.494,0,0,1-.308-.107l-15.587-12.311a.5.5,0,1,1,.616-.78l15.279,12.067,15.278-12.067a.5.5,0,1,1,.617.78l-15.588,12.311A.491.491,0,0,1,744.039,4631.7Z"/>
    <path id="パス_106" data-name="パス 106" d="M728.453,4639a.5.5,0,0,1-.309-.888l12.417-9.805a.5.5,0,0,1,.616.78l-12.416,9.806A.5.5,0,0,1,728.453,4639Z"/>
    <path id="パス_107" data-name="パス 107" d="M759.627,4639a.5.5,0,0,1-.308-.107L746.9,4629.09a.5.5,0,1,1,.616-.78l12.417,9.805a.5.5,0,0,1-.309.888Z"/>
  </g>
</svg>
