<svg xmlns="http://www.w3.org/2000/svg" width="18.023" height="22.744" viewBox="0 0 18.023 22.744">
  <g id="テキスト" transform="translate(-1134.125 -104)">
    <g id="グループ_11" data-name="グループ 11">
      <path id="パス_54" data-name="パス 54" d="M1138.343,104.052a9.255,9.255,0,0,0,1.552,7.5,2.519,2.519,0,0,0,1.282-1.048l-.853-5.8A1.959,1.959,0,0,0,1138.343,104.052Z" fill="#3e3a39"/>
      <path id="パス_55" data-name="パス 55" d="M1145.215,120.3l-.92.688a14.752,14.752,0,0,1-5.675-8.69l1-.57c-2.152-3.223-2.081-5.77-1.58-7.644a5.248,5.248,0,0,0-3.882,4.592c-.543,7.389,6.367,16.319,11.685,17.85a5.438,5.438,0,0,0,5.758-1.734C1149.68,124.5,1147.315,123.554,1145.215,120.3Z" fill="#3e3a39"/>
      <path id="パス_56" data-name="パス 56" d="M1151.746,124.518a9.255,9.255,0,0,1-6.265-4.409,2.519,2.519,0,0,1,1.472-.759l4.985,3.092A1.96,1.96,0,0,1,1151.746,124.518Z" fill="#3e3a39"/>
    </g>
  </g>
</svg>
