<svg xmlns="http://www.w3.org/2000/svg" viewBox="0 0 170.22 18.5"><g data-name="グループ化 8186"><path data-name="パス 4880" d="M80.26 12.44l-.02.1.08.06c.04 0 .1-.04.14-.04.26-.14.62-.44.88-.6.04-.02.88-.94.96-1.04a11.887 11.887 0 0 0 1.62-3.6c.04-.04.2-.34.26-.42h.18c.16 0 1 .22 1.2.22.08 0 .48-.16.58-.16a5.716 5.716 0 0 0 .72-.1c.06.04.62.7.68.78a4.891 4.891 0 0 1 .12 1.2c0 .1-.02.56-.02.66 0 .12.02.64.02.78a1.068 1.068 0 0 1-.1.5 14.44 14.44 0 0 1-1.98.4c-.08.02-1.64.34-1.78.34-.1 0-.6-.08-.72-.08a.855.855 0 0 0-.34.06c.08.38 1.52 1.06 2.08 1.06.08 0 .36-.22.42-.22.22-.06 1.64-.32 1.74-.36l-.02.08a28.722 28.722 0 0 1-3.36 3.74c-.2.18-1.38 1.08-1.38 1.14a.178.178 0 0 0 .18.14 1.032 1.032 0 0 0 .22-.04h.24a6.166 6.166 0 0 0 .78-.24 6.352 6.352 0 0 0 2.76-2.14c.18-.2.96-1.32 1.14-1.56.02.28.06.86.06 1.26 0 .12-.08.72-.08.86-.04.4-.04.44-.16.5a.913.913 0 0 1-.02.38.9.9 0 0 0-.08.56l.04.04c.26 1.1.36 1.3.48 1.4s.18.1.68.12a1.683 1.683 0 0 0 .38-1.12c0-.38-.12-2.28-.12-2.7 0-.14.06-.88.06-1.04a7.386 7.386 0 0 1 .02-.82l.04-.02.24.3c.04 0 1.24 1.34 1.3 1.38.08.1.56.52.64.64.42.54.68.9 1.2.9.56 0 .76-.34.76-.98 0-.4-.6-.96-.88-1.16a6.627 6.627 0 0 0-2.56-1.24 1.121 1.121 0 0 1-.66-.3c-.02-.32-.02-.34.1-.4a5.439 5.439 0 0 1 1.86-.16c.18 0 1.06-.14 1.18-.14.02 0 .5.06.58.06s.6-.12.72-.14a.627.627 0 0 0 .24-.44.589.589 0 0 0-.34-.44c-.14-.04-1.06-.3-1.18-.3-.14 0-.2.02-.76.28-.12.04-1.96.22-2.26.24l-.08-.06a.3.3 0 0 1 .04-.3c.14-.06.78-.46.94-.52a4.567 4.567 0 0 0 1.14-.68c.12-.06.94-.96 1.06-.96.4-.06.52-.06.52-.54 0-.14-.08-.2-.28-.34a10.167 10.167 0 0 0-1.18-.36h-.8l-.04.04c-.04.12.06.2.16.28.26.18.28.2.28.34a6.2 6.2 0 0 1-1.8 2.3c-.02-.28-.02-.4-.02-.52a3.321 3.321 0 0 0 .06-.44c0-.04.16-.72.16-.8a2.123 2.123 0 0 0-.32-.64 4.765 4.765 0 0 0-1.48-.66V6.7a2.984 2.984 0 0 1 .42-.04c.18-.02 1.02-.24 1.22-.28.08 0 .56 0 .64-.02.1 0 .56-.18.66-.2s.66-.04.76-.04a4.457 4.457 0 0 1 .96-.06c.06 0 .32-.08.38-.08.12 0 .7.04.84.04a12.2 12.2 0 0 1 1.68.26A11.428 11.428 0 0 1 95 7.8c0 .18-.02 1.12-.02 1.34 0 .04.02.98.02 1.16 0 .1-.08 1.62-.1 1.78-.06.52-.26 1.82-.34 2.4-.5 1.78-.74 1.92-1.6 1.9L91 16.34l-.22.06v.08c.04.02.44.18.48.2a7.646 7.646 0 0 1 1.18.7c.64 1.02.7 1.12.94 1.12.74 0 1.24-.7 1.62-1.24a4.757 4.757 0 0 0 .82-2.06c.02-.08.06-.52.08-.6a7.223 7.223 0 0 0 .36-2.08 4.056 4.056 0 0 1 .08-.54c.02-.08.04-.6.04-.74l.08-2.48a4 4 0 0 1 .3-1.66c.22-.26.26-.32.26-.46a1.841 1.841 0 0 0-.26-.48A2.539 2.539 0 0 0 95 5.22a3 3 0 0 1-1.1.12c-.06 0-.78-.04-.94-.04-.1 0-.68.04-.8.04l-2.1.08-1.7.2-1.7.22a1.472 1.472 0 0 1-.66.14c-.2 0-1.16.2-1.4.2s-.26-.08-.4-.5c-.58-.38-.64-.42-.88-.42a5.43 5.43 0 0 0-1.16.12c-.06.02-.06.08-.06.14.06.1.62.4.66.52a2.97 2.97 0 0 1 .04.9 9.852 9.852 0 0 1-1.48 3.82c-.1.18-.62 1.12-.74 1.32-.06.06-.18.24-.26.34zm1-9.2l.02.06a5 5 0 0 1 .86.46 1.392 1.392 0 0 0 .28.16 5.748 5.748 0 0 0 1.48.42 6.154 6.154 0 0 0 .76-.32 5.592 5.592 0 0 1 .88-.22 1.211 1.211 0 0 1 .3.04 16.909 16.909 0 0 0 .38 1.68.506.506 0 0 0 .42.26c.2 0 .34-.54.38-.66.06-.24.16-1.52.2-1.6a2.784 2.784 0 0 1 .94-.22c.24 0 .72.04.96.04.1 0 .64-.08.76-.1h.6l-.28.62c-.48 1.06-.54 1.18-.56 1.26a.213.213 0 0 0 .16.12 10.145 10.145 0 0 0 1.12-.96c.04-.06.48-.6.52-.68l.04-.18.14-.12.04-.06.78-.06 1.68.1h.36a4.542 4.542 0 0 1 1.34.16.5.5 0 0 0 .16.02.451.451 0 0 0 .46-.34c0-.08-.02-.12-.26-.46-.04-.02-.64-.32-.66-.32-.06-.02-.32-.06-.38-.08-.52-.18-.58-.2-.6-.2a3.723 3.723 0 0 0-.62.2c-.16.02-1.12.08-1.18.08a1.617 1.617 0 0 1-.3-.02l-.02-.06c.34-.52.38-.58.5-.62.26-.04.46-.1.46-.38 0-.32-.76-.92-1.44-1.04-.1-.02-1.48-.22-1.5-.22a.3.3 0 0 0-.14.06l-.02.08a9.936 9.936 0 0 0 .76.84 4.23 4.23 0 0 0-.08.76c-.04.24-.14.52-.18.68a9.037 9.037 0 0 1-1.38.16c-.3 0-1.76.16-2.1.16-.04 0-.06 0-.12-.06l-.08-.66c.08-.2.1-.22.1-.26 0-.12-.28-.42-.38-.5a9.1 9.1 0 0 0-1.46-.54c-.1 0-.92.06-1.08.06a.2.2 0 0 0-.22.12l.02.08.06.04a.18.18 0 0 1 .1.02 6.743 6.743 0 0 1 .9.5c.46.24.52 1.3.52 1.4-.32.02-.88.08-1.14.1s-1.58.24-1.88.24c-.18 0-1.04-.14-1.24-.14a.371.371 0 0 0-.14.04zm2.5 5.02c0 .08.08.12.2.16.44.18.5.2.58.4.54 1.4.82 2.12 1.72 2.12a.242.242 0 0 0 .26-.24c0-.08-.36-1.64-.42-1.8-.02-.06-.36-.78-1.8-.78-.5 0-.54 0-.54.14zm20.08-4.46c.04.06 1.02.78 1.06.82a1.946 1.946 0 0 1 .68 1.08 3.115 3.115 0 0 0 .04.54 13.918 13.918 0 0 1 .28 2.66c.02.26.16 1.54.16 1.82.02.32.2 1.8.2 2.14 0 .1.22 2.08.32 2.36.18.5.54 1.22 1.14 1.22a.463.463 0 0 0 .3-.1c.12.02.68.22.8.22a.151.151 0 0 0 .14-.08c.06 0 .68-.12.78-.12a3.077 3.077 0 0 1 .38-.16h.24c.58-.1 1.54-.26 1.94-.32.12-.02.76-.06.9-.1a2.1 2.1 0 0 1 .76-.1c.1 0 .62-.16.74-.16h2.18a1.4 1.4 0 0 1 .24.06 1.659 1.659 0 0 1 .5.68 3.245 3.245 0 0 0 .26.58c.12.26.28.6.54.6a2.712 2.712 0 0 0 .68-.46 20.756 20.756 0 0 0 .74-2.42l.18-1.7c.04-.36.08-.96.08-1.32 0-.34.26-2.1.26-2.16l.16-1.66a1.623 1.623 0 0 0 .02-.34 5.541 5.541 0 0 1 .2-1.24c.02-.12 0-.76.04-.88a1.29 1.29 0 0 1 .32-.42 1.227 1.227 0 0 0 .5-.72c0-.4-.3-.62-.64-.88a7.412 7.412 0 0 1-.54-.58 4.248 4.248 0 0 0-1.5-.54.61.61 0 0 0-.32.06 1.658 1.658 0 0 1-.94.18c-.16 0-.98-.08-1.16-.08-.22 0-.98.04-1.2.06-.72.1-2.22.18-3 .24-.1.02-2.16.34-2.42.38l-1.9.24a3.012 3.012 0 0 1-.76.18c-.08.02-2.16.26-2.18.26s-.34-.06-.4-.06a1.964 1.964 0 0 0-.8.2zm9.86 5.68a17.452 17.452 0 0 1 2.08-.2c.2 0 1.18-.06 1.4-.06.28 0 .64-.6.64-.68a2.01 2.01 0 0 0-.36-.48 4.141 4.141 0 0 0-1.78-.4c-.2.2-.26.2-.92.26-.12.02-.7.12-.84.12-.2 0-.24-.1-.24-.26 0-.1.08-.58.08-.66 0-.3.02-1.76.02-2.1 0-.06.08-.36.08-.44 0-.28-.44-.7-.46-.72-.26-.14-.48-.3-.52-.32v-.08l.02-.04a2.7 2.7 0 0 0 .6-.06 1.729 1.729 0 0 1 .78-.12c.12 0 .6-.06.72-.06l1.82-.12h.2a15.388 15.388 0 0 0 1.9.12.762.762 0 0 1 .2.06c0 .04.06.22.06.3s-.06.4-.06.48c-.04.32-.1 1.7-.1 1.92 0 .58-.14 2.12-.14 2.38l-.06 1.8c-.02.3-.18 1.84-.2 2.2a9.489 9.489 0 0 1-.34 2.24c-.16.02-1-.12-1.18-.12-.38 0-2.24.08-2.66.08-.16 0-.88.14-.98.14-.06 0-.18-.04-.22-.04v-.2a5.225 5.225 0 0 0 .12-.64c.04-.14.06-.9.08-1.06a13.717 13.717 0 0 0 .1-2.18c0-.14.12-.8.12-.94zm-6.36-.64c0-.18-.12-1.08-.14-1.3a8.423 8.423 0 0 0-.34-2.28c0-.02-.32-.36-.32-.44s.08-.16.16-.22c.26-.06.32-.06.8-.2a12.006 12.006 0 0 1 3.34-.7c.06-.02.2-.04.26-.06a6.027 6.027 0 0 1 .62.32c.2.14.26 1.3.26 1.44 0 .22-.1 1.28-.1 1.36 0 .14.04.78.04.92a5 5 0 0 1-.04.66l-.12.1c-.44.02-2.54.42-3.02.46a9.312 9.312 0 0 1-1.3.24l-.08-.28zm1.12 6.84a.248.248 0 0 1-.28-.06c-.04-.18-.3-1.04-.32-1.24-.04-.48-.12-1.28-.14-1.56a7.516 7.516 0 0 0-.22-1.3c-.02-.06-.04-1.16-.02-1.34a.166.166 0 0 1 .14-.06c.1 0 .58.12.68.12a6.072 6.072 0 0 0 1.66-.34c.14-.02.88-.1 1.04-.12.1-.02.52-.2.62-.2a1.858 1.858 0 0 1 .26.08l.06.46c-.02.12-.02 1.74-.02 1.88 0 .24.04 1.42.04 1.7 0 .02-.06.52-.06.6a.487.487 0 0 0 .1.3.579.579 0 0 1-.52.4 8.243 8.243 0 0 0-1.4.28zM135.8 5.64c-.02.02-.04.92-.08.96a30.984 30.984 0 0 1-3.88.88 4.945 4.945 0 0 1-1.44.12c-.08 0-.56.12-.58.12a1.886 1.886 0 0 0-.4-.06c-.02 0-.5 0-.52.18.18.14 1.08.82 1.2.88a7.53 7.53 0 0 0 1.14.44 3.71 3.71 0 0 0 1.14-.36c.1-.06.76-.24.88-.28a12.08 12.08 0 0 1 2.12-.68.655.655 0 0 1 .14.32 19.77 19.77 0 0 1-1.5 3.78 10.576 10.576 0 0 1-2.1 2.9c-.12.12-1.14.98-1.32 1.2-.1.1-.6.52-.68.62-.12.08-.4.3-.6.46a5.256 5.256 0 0 1-.86.52c-.18.02-.2.06-.24.14a.345.345 0 0 0 .12.12c.04 0 .26-.04.32-.04.1 0 .44.04.52.04.02 0 .96-.2 1.12-.26s.86-.54 1.02-.64a12.793 12.793 0 0 0 1.76-1.4 3.793 3.793 0 0 1 .78-.94c.1-.1.54-.72.68-.82a5.843 5.843 0 0 1 .66 1.14 7.38 7.38 0 0 0 .62 1.32c.1.34.32.6.54.6.3 0 .84-1 .84-1.2a4.591 4.591 0 0 0-.28-1.06 6.234 6.234 0 0 0-.82-.82c-.16-.12-1.14-.48-1.14-.7a2.193 2.193 0 0 1 .42-.72 12.271 12.271 0 0 0 1.1-2.68l.1-.02c.14.2.74 1.3.88 1.52a25.736 25.736 0 0 0 1.64 2.34c.26.32 1.46 1.98 1.74 2.34.1.12.68.68.8.8.8 1 1.18 1.36 3.4 1.36.12 0 .72-.12.86-.12.66-.1.74-.1.76-.36-.1-.1-.72-.7-.76-.72-.3-.14-1.14-.7-1.26-.78a15.026 15.026 0 0 1-2.32-1.58 22.733 22.733 0 0 1-2.64-2.86c-.74-.88-1.48-1.76-2.18-2.68a6.217 6.217 0 0 1-.62-.86c0-.06.06-.54.18-.62a10.258 10.258 0 0 1 1.4-.2l1.66-.26c.32-.02.94-.04 1.22-.06.06 0 1.22.18 1.46.18.52 0 1.2-.34 1.2-.48a1.344 1.344 0 0 0-.74-.92 3.267 3.267 0 0 0-1.68-.4c-.08 0-.48-.06-.52-.06a.3.3 0 0 0-.18.04c-.02.02-.4.4-.5.48-.2.06-3.02.56-3.1.56s-.12-.1-.12-.16a.584.584 0 0 1 .04-.18c.04-.1.04-.64.06-.76l.36-1.96c.02-.08.02-.4.04-.48a.456.456 0 0 1 .12-.24c.28-.3.34-.38.34-.74a4.406 4.406 0 0 0-2.44-1.56c-.08 0-.44.12-.52.12-.5 0-.54.02-.74.12a.618.618 0 0 0 .04.16s1.16.92 1.18.94a10.528 10.528 0 0 1 .16 1.64l.02.62zm23.94 2.62a3.1 3.1 0 0 1-.44.02c-.2 0-2.94.08-3.3.12-.32.04-1.88.18-2.24.18-.12 0-.8-.1-1.2-.16a5.929 5.929 0 0 0-.82-.02.22.22 0 0 0-.06.18.87.87 0 0 1 .08.14c.08.08.56.4.64.48.06.04.34.36.4.4a2.916 2.916 0 0 1 .38.14 4.164 4.164 0 0 0 1.42.58.073.073 0 0 0 .06-.02c.68-.18 1.36-.32 2.04-.46.08-.02.54-.02.64-.04.06 0 .4-.1.48-.1.24-.06 1.42-.2 1.68-.24.08-.02.52-.14.6-.14.14-.04.82-.04.94-.06a15.491 15.491 0 0 1 2.08-.1c.08 0 .5-.04.6-.04a11.243 11.243 0 0 1 1.14.04c.2 0 1.16.2 1.36.22.16.02 1.06.1 1.22.12a7.013 7.013 0 0 0 2.3.18 4.1 4.1 0 0 0 .48-.64c0-.2-.1-.3-.42-.58-.2-.16-1.38-.74-1.46-.78a7.184 7.184 0 0 0-.82-.22 2.432 2.432 0 0 0-.96.2 20.857 20.857 0 0 1-2.74.24c-.24 0-1.4.14-1.68.16z" fill="#333"/><text transform="translate(0 13.98)" fill="#231815" font-size="12" font-family="YuGothicUI-Regular,Yu Gothic UI"><tspan x="0" y="0">代表取締役</tspan></text></g></svg>