<svg xmlns="http://www.w3.org/2000/svg" width="50.806" height="552.5" viewBox="0 0 50.806 552.5"><g transform="translate(-699 -248)"><line y2="111" transform="translate(724.5 689.5)" fill="none" stroke="#4083b0" stroke-width="1"/><g transform="translate(-303.93 160.037)"><g transform="translate(1002.93 87.963)"><path d="M1031.726,97.42c.449-.113.618,0,.675.394.113.675.225,1.632.281,2.309.056.562-.056.732-.564.844a93.552,93.552,0,0,1-10.188,2.309,254.59,254.59,0,0,1-10.808,30.341c-.225.506-.45.506-.844.338-.451-.17-1.915-.844-2.646-1.239a.554.554,0,0,1-.224-.732,174.586,174.586,0,0,0,10.526-28.089c-3.659.394-7.543.618-11.371.675-.676,0-.788-.056-.9-.562-.113-.788-.281-1.971-.45-3.1a32.812,32.812,0,0,0,3.546.113,88.566,88.566,0,0,0,10.132-.675c.788-2.983,1.238-5.01,1.633-7.093a22.668,22.668,0,0,0,.45-5.291,22.508,22.508,0,0,1,4.5,1.295.659.659,0,0,1,.45.619,1.513,1.513,0,0,1-.45.9,5.1,5.1,0,0,0-.9,2.2c-.675,2.308-1.181,4.617-1.8,6.756A68.072,68.072,0,0,0,1031.726,97.42Zm-2.815,25.782c.45,0,.562.113.619.563.395,5.066,3.546,6.755,10.64,6.755a60.384,60.384,0,0,0,8.331-.732c.45-.056.619-.056.675.394a20.183,20.183,0,0,1,.225,2.7c0,.562-.169.675-.619.732a51.185,51.185,0,0,1-7.374.563c-6.079,0-9.852-.789-12.384-3.1-1.97-1.689-2.7-4.222-2.758-7.6A17.691,17.691,0,0,1,1028.912,123.2Zm1.407-14.467c0-.507.113-.675.732-.844a44.879,44.879,0,0,1,9.851-1.182,56.494,56.494,0,0,1,6.98.563c.675.112.789.281.844.619a17.557,17.557,0,0,1,.056,2.477c-.056.675-.225.844-.732.732a45.025,45.025,0,0,0-7.205-.619,49.153,49.153,0,0,0-10.357,1.238C1030.375,110.761,1030.319,109.41,1030.319,108.735Zm11.652-16.888a.437.437,0,0,1,.563.056,27.312,27.312,0,0,1,6.361,6.811.407.407,0,0,1-.112.62l-1.632,1.35a.449.449,0,0,1-.732-.113,24.3,24.3,0,0,0-6.53-7.205Zm4.672-3.659c.225-.169.394-.225.619-.056a32.374,32.374,0,0,1,6.418,6.586c.168.281.112.45-.17.675l-1.52,1.351c-.225.225-.45.225-.675-.113a26.885,26.885,0,0,0-6.473-7.036Z" transform="translate(-1003.607 -87.963)" fill="#4083b0"/><path d="M1021.967,190.247a19.363,19.363,0,0,0,.507-5.4,23.628,23.628,0,0,1,4.391,1.52.833.833,0,0,1,.226,1.464,3.815,3.815,0,0,0-.958,1.858c-.844,2.758-1.576,5.4-2.421,8.162a51.817,51.817,0,0,1,5.461-.394c4.9,0,7.318,2.477,7.318,9.063,0,7.43-1.239,14.129-3.1,18.182-1.407,3.1-3.66,4.447-6.418,4.447a14.785,14.785,0,0,1-5.742-1.013.919.919,0,0,1-.676-.957,9.977,9.977,0,0,0-.675-3.377,16.4,16.4,0,0,0,6.531,1.576c1.632,0,2.7-.563,3.771-2.927,1.407-3.209,2.533-8.894,2.533-15.818,0-4.391-.845-5.967-3.885-5.967a39.771,39.771,0,0,0-6.079.619,152.955,152.955,0,0,1-11.483,26.626.675.675,0,0,1-.957.281,15.807,15.807,0,0,1-2.252-1.52c-.338-.281-.281-.563-.113-.9a119.467,119.467,0,0,0,10.808-23.98c-2.308.338-4.616.732-7.43,1.238a8.178,8.178,0,0,0-2.477.732c-.619.394-1.126.394-1.464-.281a21.363,21.363,0,0,1-1.295-3.828,38.129,38.129,0,0,0,5.854-.281c3.1-.338,5.291-.676,7.937-1.07C1020.616,195.651,1021.235,193.4,1021.967,190.247Zm20.659,4.616a.717.717,0,0,1,.844.225,32.1,32.1,0,0,1,9.063,13.623c.113.394.169.675-.169.957a12.556,12.556,0,0,1-2.308,1.52c-.449.281-.844.225-.957-.338a31.283,31.283,0,0,0-9.006-14.242A25.262,25.262,0,0,1,1042.626,194.863Z" transform="translate(-1003.867 -116.676)" fill="#4083b0"/><path d="M1020.771,293.011c.675.394.732.9.338,1.407a7.275,7.275,0,0,0-.844,2.646,102.2,102.2,0,0,0-1.632,12.891c5.911-6.7,12.891-10.132,19.646-10.132,7.655,0,12.1,4.39,12.1,10.751,0,5.685-3.152,9.344-8.444,11.99a41.743,41.743,0,0,1-13.678,3.715c-.9.113-1.183.113-1.464-.507a8.975,8.975,0,0,0-2.533-2.758,45.322,45.322,0,0,0,15.312-3.49c4.391-2.026,6.755-5.179,6.755-9.288,0-4-2.533-7.093-8.5-7.093-5.348,0-11.484,3.378-16.719,8.782a14,14,0,0,0-2.477,3.321c-.281.45-.45.45-.9.281a21.884,21.884,0,0,1-2.308-1.013c-.338-.169-.45-.281-.45-.788a165.886,165.886,0,0,1,1.632-17.676,33.621,33.621,0,0,0,.45-4.672A18.13,18.13,0,0,1,1020.771,293.011Zm2.7-13.679a.591.591,0,0,1,.788-.169,33.417,33.417,0,0,1,10.3,6.417c.338.281.338.394.113.788a17.4,17.4,0,0,1-1.858,2.42c-.282.338-.564.338-.9,0a36.8,36.8,0,0,0-10.414-6.867A16.1,16.1,0,0,1,1023.473,279.333Z" transform="translate(-1006.499 -144.606)" fill="#4083b0"/><path d="M1056.76,376.061a.978.978,0,0,1,.619-.338c.169,0,.338.113.619.338a38.992,38.992,0,0,1,10.808,10.132,1.2,1.2,0,0,1,.282.675c0,.225-.056.394-.395.676l-2.026,1.689c-.281.225-.449.338-.562.338-.226,0-.395-.056-.619-.45a41,41,0,0,0-10.358-10.526c-.281-.169-.395-.281-.395-.394,0-.169.056-.281.282-.563Z" transform="translate(-1018.283 -173.247)" fill="#4083b0"/><path d="M1052.423,456.5c0,.393-.056.45-.45.45-.338,0-2.083-.113-7.43-.113h-4.5a36.076,36.076,0,0,1-7.261,13.567c5.516,2.421,10.751,5.179,15.986,8.106.338.225.45.395,0,1.013l-1.295,1.914c-.169.282-.338.451-.507.451a1.4,1.4,0,0,1-.619-.282,121.508,121.508,0,0,0-16.1-8.669c-5.573,4.785-13,7.318-23.023,8.782-1.07.113-1.126.056-1.576-.9a7.13,7.13,0,0,0-1.464-2.2c10.3-1.125,17.394-3.377,22.517-7.149a91.776,91.776,0,0,0-11.09-3.771c-.507.732-1.069,1.576-1.576,2.2a.892.892,0,0,1-1.126.338l-1.689-.619c-.9-.338-.9-.507-.563-.9.9-1.069,1.914-2.477,2.758-3.659a90.312,90.312,0,0,0,4.9-8.219h-6.417c-5.348,0-7.149.113-7.431.113-.393,0-.449-.056-.449-.45v-2.365c0-.393.056-.45.449-.45.282,0,2.083.113,7.431.113h7.993c.844-1.689,1.633-3.378,2.365-5.122a17.278,17.278,0,0,0,1.407-4.448,33.726,33.726,0,0,1,3.715,1.07c.337.113.563.338.563.564,0,.337-.226.618-.619.9a5.747,5.747,0,0,0-1.351,2.139c-.732,1.689-1.52,3.322-2.308,4.9h20.884c5.348,0,7.093-.113,7.43-.113.394,0,.45.056.45.45Zm-2.2-12.666c0,4.954.112,5.63.112,5.967,0,.395-.056.451-.45.451H1047.3c-.394,0-.45-.056-.45-.451v-8.049h-38.111V449.8c0,.395-.056.451-.449.451H1005.7c-.394,0-.451-.056-.451-.451,0-.337.113-1.012.113-5.967v-1.8c0-1.857-.113-2.7-.113-2.983,0-.394.057-.45.451-.45.338,0,2.307.113,7.881.113h12.1v-.844a23.488,23.488,0,0,0-.45-5.742c1.407.056,2.646.168,3.771.281.451.057.676.226.676.451a2.627,2.627,0,0,1-.337,1.07,14.238,14.238,0,0,0-.282,3.94v.844h13c5.573,0,7.486-.113,7.824-.113.394,0,.45.056.45.45,0,.281-.112,1.126-.112,2.646Zm-28.09,13c-1.464,2.759-3.04,5.517-4.785,8.275a98.121,98.121,0,0,1,12.1,3.94,31.13,31.13,0,0,0,6.98-12.216Z" transform="translate(-1003.251 -189.962)" fill="#4083b0"/><path d="M1011.8,550.375c.732.169.788.281.732.676a61.051,61.051,0,0,1-5.911,18.294c-.225.395-.45.45-1.07.169l-1.8-.788c-.9-.393-.9-.619-.732-.957a49.561,49.561,0,0,0,5.967-17.619c.056-.451.112-.395,1.013-.17Zm9.851,19.7c0,1.689.395,2.646,1.351,3.1.844.394,2.646.619,6.024.619,3.49,0,5.854-.338,6.924-1.238,1.576-1.127,2.139-2.7,2.082-10.3a10.043,10.043,0,0,0,2.7,1.238c1.013.338,1.013.338.957,1.351-.17,6.7-1.013,9.232-2.984,10.527-2.026,1.464-4.9,1.969-9.851,1.969-4.671,0-6.923-.338-8.33-1.069-1.521-.788-2.478-1.858-2.478-5.122V549.193a28.308,28.308,0,0,0-.337-5.122,23.8,23.8,0,0,1,3.771.451c.564.112.788.337.788.563a1.689,1.689,0,0,1-.281.788c-.226.45-.339,1.407-.339,3.659Zm-1.295-39.685c.394-.619.45-.676.845-.507a64.1,64.1,0,0,1,14.86,7.6c.338.225.338.338-.056.957l-1.013,1.8c-.507.787-.564.844-.957.562a57.01,57.01,0,0,0-14.692-7.993c-.394-.169-.394-.281,0-.957Zm23.812,18.632c.619-.224.788-.224,1.069.169a72.536,72.536,0,0,1,7.713,16.438c.168.45.112.619-.62.957l-1.858.9c-.844.394-.957.45-1.069.056a61.61,61.61,0,0,0-7.544-16.831c-.225-.338-.169-.676.393-.9Z" transform="translate(-1002.93 -218.912)" fill="#4083b0"/><path d="M1068.449,631.786a7.938,7.938,0,1,1-7.938-7.824A7.9,7.9,0,0,1,1068.449,631.786Zm-12.948,0a5.01,5.01,0,1,0,5.01-5.01A5.021,5.021,0,0,0,1055.5,631.786Z" transform="translate(-1017.643 -246.818)" fill="#4083b0"/></g></g></g></svg>