<svg xmlns="http://www.w3.org/2000/svg" width="54.806" height="59.788" viewBox="0 0 54.806 59.788"><path d="M1,54.806H5.983V0H50.824V54.806h4.982v4.983H1Zm17.438-7.474V57.3h7.474V47.332Zm12.456,0V57.3h7.474V47.332ZM15.947,34.877H10.965v4.982h4.983Zm19.93,0H30.894v4.982h4.983Zm-9.965,0H20.93v4.982h4.982Zm19.93,0H40.859v4.982h4.983ZM15.947,24.912H10.965v4.983h4.983Zm19.93,0H30.894v4.983h4.983Zm-9.965,0H20.93v4.983h4.982Zm19.93,0H40.859v4.983h4.983ZM15.947,14.947H10.965V19.93h4.983Zm19.93,0H30.894V19.93h4.983Zm-9.965,0H20.93V19.93h4.982Zm19.93,0H40.859V19.93h4.983ZM15.947,4.983H10.965V9.965h4.983Zm19.93,0H30.894V9.965h4.983Zm-9.965,0H20.93V9.965h4.982Zm19.93,0H40.859V9.965h4.983Z" transform="translate(-1)" fill="#4083b0" fill-rule="evenodd"/></svg>