<svg xmlns="http://www.w3.org/2000/svg" width="68.75" height="50" viewBox="0 0 68.75 50"><path d="M69.75,47.75H63.5V54H60.375V47.75h-6.25V44.625h6.25v-6.25H63.5v6.25h6.25Zm-50-31.25c-7.791,0-13.209,7.447-5.831,21.372,2.419,4.575-2.581,5.662-7.953,6.9C1.309,45.853,1,48.125,1,52.069L1.006,54H5.159c0-5.994-.581-4.328,5.7-6.166,3.169-.922,5.969-2.259,7.237-5.037a7.5,7.5,0,0,0-.506-6.866c-2.975-5.619-3.809-10.544-2.225-13.172,1.709-2.841,7.094-2.837,8.809.047C27.1,27.7,21.7,35.25,20.988,38.375H25.35c1.375-3.125,3.769-6.9,3.769-12.188C29.122,19.906,25.025,16.5,19.753,16.5Zm24.231-4.863c2.8-4.647,11.278-4.669,14.1.069,2.406,4.034,1.322,10.887-2.966,18.8a12.337,12.337,0,0,0-.725,1.616h4.575C68.522,14.175,61.519,4,51.006,4,40.622,4,33.4,13.928,43.231,32.5c3.228,6.1-3.441,7.55-10.606,9.206C26.413,43.134,26,46.169,26,51.422L26.009,54h4.159c0-6.466-.25-7.4,3.666-8.3,5.994-1.381,11.653-2.687,13.719-7.2.753-1.647,1.253-4.366-.644-7.947C42.653,22.509,41.584,15.619,43.984,11.637Z" transform="translate(-1 -4)" fill="#4083b0"/></svg>