<svg xmlns="http://www.w3.org/2000/svg" width="100" height="50" viewBox="0 0 100 50"><path d="M74.988,56H70.829c0-6.467.25-7.4-3.667-8.3-5.991-1.383-11.654-2.688-13.72-7.2-.75-1.65-1.254-4.367.646-7.946,4.254-8.037,5.321-14.929,2.925-18.908-2.8-4.646-11.279-4.667-14.1.071-2.4,4.033-1.317,10.887,2.97,18.8,1.938,3.567,1.45,6.291.7,7.95-2.041,4.537-7.65,5.833-13.591,7.2C28.9,48.6,29.154,49.471,29.154,56H25.009L25,53.4c0-5.246.417-8.271,6.617-9.7,7.009-1.621,13.933-3.067,10.6-9.2C32.362,16.309,39.4,6,49.992,6,60.375,6,67.6,15.929,57.771,34.5c-3.229,6.1,3.433,7.55,10.6,9.2C74.583,45.133,75,48.167,75,53.421Zm20.041-9.225c-5.37-1.242-10.37-2.33-7.95-6.9C94.454,25.946,89.038,18.5,81.246,18.5c-5.27,0-9.367,3.4-9.367,9.688,0,5.287,2.392,9.062,3.767,12.187h4.367C79.3,37.25,73.9,29.7,76.821,24.808c1.717-2.883,7.1-2.887,8.808-.05,1.583,2.63.754,7.55-2.225,13.171a7.493,7.493,0,0,0-.5,6.867c1.271,2.775,4.071,4.113,7.238,5.033,6.279,1.838,5.7.175,5.7,6.167h4.154L100,54.067C100,50.129,99.692,47.85,95.029,46.775ZM.008,56H4.162c0-5.991-.579-4.329,5.7-6.167,3.171-.921,5.971-2.258,7.238-5.033a7.493,7.493,0,0,0-.5-6.867c-2.979-5.621-3.808-10.541-2.225-13.171,1.708-2.841,7.091-2.837,8.808.05,2.917,4.9-2.483,12.442-3.191,15.567h4.367c1.375-3.125,3.767-6.9,3.767-12.187,0-6.288-4.092-9.692-9.362-9.692-7.792,0-13.209,7.446-5.834,21.371,2.421,4.579-2.579,5.662-7.95,6.9C.308,47.85,0,50.129,0,54.071Z" transform="translate(0 -6)" fill="#4083b0"/></svg>