<svg xmlns="http://www.w3.org/2000/svg" width="130" height="31.459" viewBox="0 0 130 31.459"><path d="M455.388,238.2h-7.121v17.357L439.5,238.2H429.337v7.033h3.043v22.024L426.849,238.2H411.831l-5.1,26.783V253.943a3.539,3.539,0,0,0-3.561-3.516h-10.3v-5.2h13.858V238.2H389.314a3.539,3.539,0,0,0-3.561,3.516v12.232a3.539,3.539,0,0,0,3.561,3.516h10.3v5.162h-6.736v-1.988h-7.122v9.021h28.991l4.6-24.141,4.6,24.141H439.5V255.823l6.985,13.831h8.9V245.228h2.454V238.2Z" transform="translate(-385.753 -238.195)" fill="#fff"/><path d="M596.331,245.227v-7.033H577.907L571.237,251.4V238.195h-7.122v24.426h-1.78v-2.784h-7.122v2.784h-5.438v-5.18h12.56v-7.033h-12.56v-5.18h5.438v2.784h7.122v-9.817H540.2v7.033h2.453v17.394H540.2v7.033h31.037V257.707h4.886v11.947h7.122v-18.3h-3.081l3.093-6.125h3.5v24.426h9.575v-7.033h-2.453V245.227Z" transform="translate(-466.331 -238.194)" fill="#fff"/></svg>